<svg id="Layer_1" enable-background="new 0 0 500 500" viewBox="0 0 500 500" xmlns="http://www.w3.org/2000/svg" xmlns:xlink="http://www.w3.org/1999/xlink"><linearGradient id="SVGID_1_" gradientUnits="userSpaceOnUse" x1="77.812" x2="470.191" y1="492.831" y2="100.452"><stop offset=".324" stop-color="#157fff"/><stop offset="1" stop-color="#2affc0"/></linearGradient><path clip-rule="evenodd" d="m461.68 150.324-13.286 4.319c-2.218.725-3.923 2.531-4.507 4.796-1.457 5.693-3.723 11.156-6.737 16.242-1.18 2.012-1.263 4.49-.201 6.578l6.348 12.454-9.245 9.251-12.46-6.36c-2.076-1.05-4.56-.979-6.572.212-5.085 3.003-10.543 5.268-16.241 6.737-2.259.584-4.071 2.277-4.79 4.496l-4.324 13.292h-13.068l-4.313-13.28c-.731-2.23-2.543-3.923-4.802-4.507-5.699-1.469-11.162-3.734-16.242-6.737-2.012-1.192-4.49-1.263-6.572-.212l-12.454 6.36-9.251-9.251 6.354-12.454c1.056-2.088.973-4.566-.206-6.584-3.009-5.074-5.274-10.537-6.743-16.236-.578-2.265-2.271-4.071-4.496-4.796l-13.292-4.319v-13.075l13.292-4.313c2.224-.72 3.917-2.531 4.496-4.802 1.469-5.687 3.734-11.15 6.743-16.23 1.192-2.012 1.263-4.495.206-6.584l-6.354-12.454 9.251-9.239 12.454 6.342c2.082 1.068 4.56.985 6.572-.206 5.08-3.009 10.542-5.274 16.242-6.726 2.259-.584 4.071-2.289 4.802-4.513l4.313-13.28h13.073l4.319 13.28c.72 2.224 2.531 3.929 4.79 4.513 5.699 1.451 11.156 3.717 16.241 6.726 2.012 1.192 4.496 1.274 6.572.206l12.46-6.342 9.245 9.239-6.348 12.454c-1.062 2.088-.979 4.572.201 6.584 3.003 5.08 5.274 10.543 6.737 16.23.584 2.271 2.277 4.083 4.507 4.802l13.286 4.313zm-30.849 88.44v195.766c0 .118-.106.23-.218.23h-94.96c-.118 0-.224-.112-.224-.23v-195.766c0-.118.106-.224.224-.224h94.96c.112 0 .218.106.218.224zm-153.342-100.765-43.185 19.002c-3.286 1.446-8.177 2.602-12.773-.106l-12.059-7.068c-6.092-3.586-14.082.475-15.262 7.516l-3.074 18.312c-1.151 6.944.873 13.245 5.717 17.746l16.306 15.121c2.796 2.596 3.799 5.982 3.068 10.372l-7.516 44.937c-.826 4.938-4.607 6.572-7.032 6.183-4.366-.737-3.605-7.392-3.268-9.416l5.445-32.501c.956-5.735-.737-10.956-4.767-14.696l-5.711-5.298c-4.074-3.775-7.767-3.888-12.737-3.888-4.761 0-9.203 2.283-12.171 6.271l-72.7 97.638c-.832 1.097-1.965 1.74-3.133 2.012h-2.967c-.59-.147-1.121-.372-1.522-.673-2.301-1.717-.065-6.43 2.549-9.935l59.202-79.497c3.156-4.253 5.021-8.554 5.852-13.534l9.87-58.966c1.398-8.377 9.622-15.451 17.958-15.451h12.094c8.968 0 8.968 0 16.253 4.271l11.463 6.731c5.215 3.073 11.416 3.298 17.457.643l35.286-15.528c2.359-1.031 5.413-.884 6.177 1.61.785 2.529-1.121 6.564-4.82 8.192zm4.796 149.277c0-1.292-.437-2.171-.72-2.531h-93.974c-.283.36-.714 1.239-.714 2.531v144.953c0 1.292.431 2.165.714 2.531h93.974c.283-.366.72-1.239.72-2.531zm-148.557 39.392v105.213c0 1.463-.472 2.46-.785 2.879h-93.826c-.313-.419-.796-1.416-.796-2.879v-105.213c0-1.451.484-2.454.796-2.873h49.008c4.104.32 1.825.317 5.923 0h38.896c.312.419.784 1.422.784 2.873zm336.89-200.869-14.548-4.726c-1.375-4.419-3.139-8.696-5.298-12.79l6.944-13.628c1.339-2.643.838-5.841-1.257-7.929l-16.259-16.265c-2.094-2.094-5.286-2.596-7.929-1.257l-13.628 6.95c-4.1-2.159-8.389-3.935-12.796-5.31l-4.72-14.542c-.92-2.808-3.546-4.714-6.501-4.714h-22.991c-2.956 0-5.581 1.905-6.49 4.714l-4.725 14.542c-4.419 1.375-8.696 3.15-12.802 5.31l-13.628-6.95c-2.643-1.339-5.835-.838-7.935 1.257l-16.254 16.265c-2.088 2.088-2.596 5.286-1.263 7.929l6.95 13.628c-2.147 4.094-3.923 8.371-5.298 12.79l-14.796 4.826c-.006-.029-.018-.065-.029-.1-3.391-10.568-14.806-14.466-24.731-10.094l-35.285 15.522c-1.97.861-3.664.903-5.044.089l-11.463-6.737c-9.168-5.38-11.268-6.153-23.168-6.153h-12.094c-15.103 0-28.914 11.788-31.427 26.855l-9.87 58.96c-.46 2.808-1.499 5.156-3.339 7.634l-59.196 79.497c-5.428 7.286-6.849 13.669-6.012 18.767h-35.186c-7.787 0-13.887 7.262-13.887 16.531v105.213c0 9.28 6.1 16.531 13.887 16.531h94.96c7.782 0 13.87-7.251 13.87-16.531v-105.215c0-9.268-6.088-16.531-13.87-16.531h-22.218l68.128-91.491c.818-1.08 1.718-.773 3.77-.773.631 0 .749.106.903.242l5.711 5.298c.301.289.855.796.578 2.425l-5.434 32.501c-.838 5.02-.495 9.298.655 12.837-7.056.85-12.383 7.611-12.383 16.1v144.953c0 9.073 6.094 16.182 13.876 16.182h94.96c7.787 0 13.887-7.109 13.887-16.182v-144.953c0-9.079-6.1-16.188-13.887-16.188h-61.279c.613-1.528 1.097-3.198 1.398-4.997l7.522-44.949c1.481-8.885-1.086-16.926-7.245-22.637l-16.306-15.115c-.914-.844-2.059-2.336-1.54-5.475l2.301-13.758 7.705 4.525c7.475 4.384 16.413 4.679 25.191.814l43.185-18.997c3.139-1.386 5.823-3.422 7.935-5.864v10.649c0 2.962 1.905 5.587 4.719 6.496l14.548 4.725c1.375 4.413 3.15 8.69 5.298 12.79l-6.95 13.64c-1.333 2.631-.826 5.835 1.263 7.929l16.254 16.259c2.1 2.088 5.304 2.596 7.935 1.245l13.628-6.944c4.106 2.159 8.383 3.935 12.802 5.31l2.637 8.147h-27.404c-7.658 0-13.882 6.224-13.882 13.882v195.767c0 7.658 6.224 13.882 13.882 13.882h94.96c7.652 0 13.876-6.224 13.876-13.882v-195.766c0-7.658-6.224-13.882-13.876-13.882h-27.409l2.643-8.147c4.419-1.374 8.696-3.15 12.796-5.31l13.628 6.944c2.643 1.351 5.835.844 7.929-1.245l16.259-16.259c2.095-2.095 2.596-5.298 1.257-7.929l-6.944-13.64c2.159-4.1 3.935-8.378 5.304-12.79l14.542-4.725c2.814-.909 4.72-3.534 4.72-6.496v-22.997c-.001-2.949-1.906-5.569-4.72-6.489zm-87.485 54.418c20.076 0 36.418-16.342 36.418-36.424 0-20.088-16.342-36.418-36.418-36.418-20.082 0-36.424 16.33-36.424 36.418 0 20.082 16.342 36.424 36.424 36.424zm0-86.5c-27.61 0-50.081 22.46-50.081 50.076 0 27.61 22.471 50.081 50.081 50.081 27.616 0 50.076-22.471 50.076-50.081-.001-27.616-22.46-50.076-50.076-50.076zm0 60.087c5.516 0 10.006-4.495 10.006-10.011 0-5.522-4.49-10.012-10.006-10.012-5.528 0-10.011 4.49-10.011 10.012-.001 5.516 4.483 10.011 10.011 10.011zm0-33.674c-13.056 0-23.669 10.613-23.669 23.663s10.613 23.669 23.669 23.669c13.05 0 23.663-10.619 23.663-23.669s-10.613-23.663-23.663-23.663zm-174.297-47.209c7.9 0 14.324 6.419 14.324 14.318 0 7.905-6.425 14.33-14.324 14.33-7.9 0-14.33-6.425-14.33-14.33 0-7.899 6.43-14.318 14.33-14.318zm0 42.306c-15.427 0-27.982-12.554-27.982-27.988 0-15.433 12.554-27.976 27.982-27.976 15.433 0 27.982 12.543 27.982 27.976-.001 15.434-12.549 27.988-27.982 27.988z" fill="url(#SVGID_1_)" fill-rule="evenodd"/></svg>