<svg id="Line_Gradient" viewBox="0 0 64 64" xmlns="http://www.w3.org/2000/svg" xmlns:xlink="http://www.w3.org/1999/xlink" data-name="Line Gradient"><linearGradient id="linear-gradient" gradientUnits="userSpaceOnUse" x1="4" x2="60" y1="32" y2="32"><stop offset="0" stop-color="#00c0ff"/><stop offset="1" stop-color="#5558ff"/></linearGradient><path d="m57.80762 27.05566-3.76025-.98828c-.31348-.08301-.56396-.33594-.66895-.67578-.40723-1.31836-.94189-2.60742-1.58984-3.83301-.16699-.31543-.16846-.6709-.00488-.95117l1.96143-3.35938c.67236-1.15234.4834-2.61719-.46045-3.56152l-3.48389-3.4834c-.6416-.64258-1.63672-.77246-2.4209-.31445l-3.98828 2.32812c-.28027.16309-.63574.16113-.95068-.00488-1.22559-.64844-2.51514-1.18359-3.83252-1.58984-.34082-.10547-.59326-.35547-.67529-.66797l-.98828-3.76074c-.33936-1.29199-1.50879-2.19336-2.84375-2.19336h-4.20215c-1.33496 0-2.50439.90137-2.84375 2.19336l-.98828 3.76074c-.08203.3125-.33447.5625-.67529.66797-1.31738.40625-2.60693.94141-3.83252 1.58984-.31543.16602-.67041.16895-.95117.00488l-3.35938-1.96094c-1.15283-.6748-2.61719-.48535-3.56152.45898l-2.97217 2.97168c-.94287.94434-1.13281 2.40723-.46143 3.55859l2.22705 3.82031c-.77002 1.37207-1.39502 2.82617-1.85791 4.32324-.10596.34277-.35742.59668-.67236.67969l-3.75732.9873c-1.29102.33789-2.19287 1.50781-2.19287 2.84277v4.20312c0 1.33496.90039 2.50391 2.18994 2.8418l4.27344 1.12695c.42432 1.50879 1.01172 2.97852 1.74609 4.36621.16797.31836.16992.67676.00488.95898l-1.95947 3.35645c-.67236 1.15234-.4834 2.61719.46045 3.56152l2.97168 2.97168c.94385.94434 2.40576 1.13477 3.55859.46094l3.81934-2.22656c1.37207.77051 2.82666 1.39551 4.32324 1.85742.34277.10645.59668.3584.67969.67285l.9873 3.75684c.33936 1.29199 1.50879 2.19336 2.84375 2.19336h4.20215c1.33496 0 2.50439-.90137 2.84375-2.19336l.98828-3.76074c.08203-.3125.33447-.5625.67529-.66797 1.31738-.40625 2.60693-.94141 3.83252-1.58984.31543-.16602.67041-.16895.95166-.00488l3.35889 1.96094c1.15332.67676 2.61816.4873 3.56152-.45898l3.48438-3.48438c.64258-.64258.77148-1.6377.31445-2.41992l-2.32861-3.98926c-.16309-.28027-.16162-.63574.00488-.9502.64746-1.22461 1.18262-2.51367 1.59033-3.83203.10498-.34082.35547-.59375.66846-.67676l3.76025-.98828c1.29102-.33789 2.19287-1.50781 2.19287-2.84277v-4.20312c0-1.33496-.90186-2.50488-2.19238-2.84277zm.19238 7.0459c0 .42676-.28809.80078-.70117.90918l-3.76123.98828c-.98535.25977-1.75928 1.01465-2.07031 2.01953-.37061 1.2002-.85742 2.37305-1.44678 3.4873-.49219.93066-.479 2.0127.03564 2.89355l2.32715 3.9873-3.48438 3.48438c-.30176.30176-.76953.36035-1.13867.14648l-3.35938-1.96094c-.88135-.51465-1.96436-.52832-2.89551-.03613-1.11523.58984-2.28857 1.07715-3.48682 1.44727-1.00537.30957-1.76074 1.08398-2.02002 2.07031l-.98828 3.76074c-.1084.41309-.48242.70117-.90918.70117h-4.20215c-.42676 0-.80078-.28809-.90918-.70117l-.98779-3.75781c-.26025-.98828-1.0166-1.76367-2.02344-2.07422-1.36182-.4209-2.68555-.99023-3.93311-1.69043-.31152-.17578-.65088-.26367-.98828-.26367-.3418 0-.68213.09082-.98926.27051l-3.83057 2.23633c-.36719.21289-.83398.15332-1.13623-.14844l-2.97119-2.97168c-.30225-.30176-.36279-.77051-.14746-1.13965l1.95947-3.35645c.51514-.88281.52881-1.96777.03564-2.90137-.66846-1.26367-1.20312-2.60059-1.58936-3.97363-.19531-.69238-.72021-1.21289-1.40283-1.3916l-4.2876-1.12695c-.41113-.1084-.69775-.48145-.69775-.9082v-4.20312c0-.42676.28809-.80078.70068-.90918l3.75732-.9873c.98828-.25879 1.76416-1.01562 2.07568-2.02344.4209-1.36133.98975-2.68555 1.69092-3.93457.35205-.62598.34912-1.36523-.00781-1.97559l-2.23584-3.83105c-.21436-.36719-.15332-.83496.14844-1.13672l2.97168-2.97168c.30176-.30176.77002-.36035 1.13867-.14648l3.35938 1.96094c.88184.51465 1.96436.52832 2.89551.03613 1.11523-.58984 2.28857-1.07715 3.48682-1.44727 1.00537-.30957 1.76074-1.08398 2.02002-2.07031l.98828-3.76074c.1084-.41309.48242-.70117.90918-.70117h4.20215c.42676 0 .80078.28809.90918.70117l.98828 3.76074c.25928.98633 1.01465 1.76074 2.02002 2.07031 1.19824.37012 2.37158.85742 3.48682 1.44727.93164.49219 2.01318.47852 2.89502-.03613l3.98633-2.32617 3.4834 3.4834c.30225.30176.36279.77051.14746 1.13965l-1.96143 3.35938c-.51465.88281-.52783 1.96484-.03564 2.89453.58936 1.11426 1.07617 2.28809 1.44678 3.48828.31104 1.00391 1.08496 1.75879 2.0708 2.01855l3.76123.98828c.4126.1084.70068.48242.70068.90918v4.20312zm-26-17.60156c-8.54688 0-15.5 6.95312-15.5 15.5s6.95312 15.5 15.5 15.5 15.5-6.95312 15.5-15.5-6.95312-15.5-15.5-15.5zm0 29c-7.44385 0-13.5-6.05566-13.5-13.5s6.05615-13.5 13.5-13.5 13.5 6.05566 13.5 13.5-6.05615 13.5-13.5 13.5zm9-9.91699c0 .55273-.44775 1-1 1h-13.05853l1.26459.9707c.43799.33594.52051.96387.18457 1.40137-.19727.25684-.49414.3916-.79395.3916-.21289 0-.42676-.06738-.6084-.20703l-3.59717-2.76074c-.01874-.01428-.02618-.03772-.0437-.05322-.06409-.05646-.11218-.12396-.1601-.19495-.03125-.04663-.06927-.08563-.09222-.13672-.04565-.10046-.06598-.21161-.07611-.32654-.00244-.02826-.01898-.05292-.01898-.08154 0-.01532.00946-.02838.01013-.04358.00562-.13312.03448-.25885.0871-.37354.01727-.03741.04608-.06561.06787-.10065.05444-.08807.11493-.16803.19312-.23511.01343-.01141.0188-.02936.0329-.0401l3.59717-2.76074c.4375-.33594 1.06543-.25391 1.40234.18457.33594.4375.25342 1.06543-.18457 1.40137l-1.25696.96484h13.0509c.55225 0 1 .44727 1 1zm-.01013-7.21545c.00067.0152.01013.02826.01013.04358 0 .02863-.01654.05328-.01898.08154-.01013.11493-.03046.22607-.07611.32654-.02295.05109-.06097.09009-.09222.13672-.04791.07098-.09601.13849-.1601.19495-.01752.0155-.02496.03894-.0437.05322l-3.59717 2.76074c-.18164.13965-.39551.20703-.6084.20703-.2998 0-.59668-.13477-.79395-.3916-.33594-.4375-.25342-1.06543.18457-1.40137l1.26459-.9707h-13.05853c-.55225 0-1-.44727-1-1s.44775-1 1-1h13.0509l-1.25696-.96484c-.43799-.33594-.52051-.96387-.18457-1.40137.33691-.43945.96436-.52148 1.40234-.18457l3.59717 2.76074c.0141.01074.01947.02869.0329.0401.07819.06708.13867.14703.19312.23511.02179.03503.0506.06323.06787.10065.05261.11469.08148.24042.0871.37354z" fill="url(#linear-gradient)"/></svg>