<svg id="Layer_1" enable-background="new 0 0 500 500" viewBox="0 0 500 500" xmlns="http://www.w3.org/2000/svg" xmlns:xlink="http://www.w3.org/1999/xlink"><linearGradient id="lg1"><stop offset="0" stop-color="#179ff4"/><stop offset="1" stop-color="#d41bd3"/></linearGradient><linearGradient id="SVGID_1_" gradientUnits="userSpaceOnUse" x1="139.996" x2="395.009" xlink:href="#lg1" y1="7.83" y2="380.833"/><linearGradient id="SVGID_00000145748940790052929610000018196686251918717339_" gradientUnits="userSpaceOnUse" x1="107.429" x2="362.442" xlink:href="#lg1" y1="30.095" y2="403.098"/><linearGradient id="SVGID_00000090278057763729667090000006753575568381442184_" gradientUnits="userSpaceOnUse" x1="52.64" x2="307.653" xlink:href="#lg1" y1="67.552" y2="440.556"/><linearGradient id="SVGID_00000147215172337480998930000008936027859855204245_" gradientUnits="userSpaceOnUse" x1="-61.328" x2="193.684" xlink:href="#lg1" y1="145.47" y2="518.473"/><linearGradient id="SVGID_00000095305874505243680890000007791444966180417957_" gradientUnits="userSpaceOnUse" x1="89.951" x2="344.964" xlink:href="#lg1" y1="42.044" y2="415.048"/><linearGradient id="SVGID_00000181056028961282514410000004468046647748452744_" gradientUnits="userSpaceOnUse" x1="24.417" x2="279.43" xlink:href="#lg1" y1="86.848" y2="459.851"/><linearGradient id="SVGID_00000029013522688357268790000002238014515316236960_" gradientUnits="userSpaceOnUse" x1="44.433" x2="299.446" xlink:href="#lg1" y1="73.163" y2="446.167"/><linearGradient id="SVGID_00000011712547135207168500000011361228872892351370_" gradientUnits="userSpaceOnUse" x1="14.244" x2="269.257" xlink:href="#lg1" y1="93.803" y2="466.806"/><g><path d="m250.0454 207.4062c21.2886 0 38.6084-17.3193 38.6084-38.6084s-17.3198-38.6084-38.6084-38.6084-38.6079 17.3193-38.6079 38.6084 17.3193 38.6084 38.6079 38.6084zm0-62.2167c13.0176 0 23.6084 10.5908 23.6084 23.6084s-10.5908 23.6084-23.6084 23.6084-23.6079-10.5908-23.6079-23.6084 10.5903-23.6084 23.6079-23.6084z" fill="url(#SVGID_1_)"/><path d="m162.9062 334.7402c1.0396 3.0059 3.8672 5.0166 7.0483 5.0361h.0449c3.1626 0 5.9922-1.998 7.0625-4.9775.3538-.9856 8.2971-22.4351 28.0504-25.2031 3.3812 10.0718 5.8021 16.1438 6.1361 16.9717 1.144 2.8379 3.8965 4.6953 6.9556 4.6953h63.6831c3.0591 0 5.8115-1.8574 6.9556-4.6953.334-.8279 2.7544-6.8989 6.1354-16.9695 19.679 2.8167 27.6053 24.2151 27.951 25.1765 1.0552 3.0049 3.8926 5.0146 7.0762 5.0146h.0181c3.1909-.0078 6.0273-2.0332 7.0703-5.0488l25.5776-73.9688c.8623-2.4941.3506-5.2578-1.3481-7.2783l-41.8545-49.7734c-.2161-.2568-.45-.4888-.6912-.709 1.1592-10.3892 1.991-21.0991 2.3625-31.999 1.189-34.8789-9.958-69.1826-32.2354-99.2021-16.7651-22.5908-33.8071-34.7852-34.5244-35.293-2.5967-1.8398-6.0732-1.8398-8.6699 0-.7173.5078-17.7593 12.7021-34.5244 35.293-22.2773 30.0195-33.4243 64.3232-32.2349 99.2021.3707 10.8743 1.1995 21.5598 2.3545 31.9258-.2715.241-.5339.4963-.7744.7822l-41.8545 49.7734c-1.6987 2.0205-2.2104 4.7842-1.3481 7.2783zm60.4761-18.4775c-.6653-1.8127-1.4956-4.1284-2.4487-6.8906h58.2241c-.9531 2.7622-1.7834 5.0779-2.4487 6.8906zm123.7222-56.3721-18.7485 54.2197c-5.9553-7.895-15.2417-16.3401-28.7664-18.9834 5.5515-18.3555 12.0664-43.498 16.5132-72.1033zm-97.0606-207.708c7.4436 6.2192 23.0906 20.7595 35.9868 42.4375-13.0276 2.7351-27.1572 4.1885-41.4004 4.1885-10.8716 0-21.4988-.8135-31.7152-2.4016 2.9902-5.1616 6.3254-10.2466 10.0135-15.2478 10.5118-14.2549 21.3043-24.1299 27.1153-28.9766zm-44.3051 58.231c12.4617 2.2485 25.519 3.395 38.8916 3.395 17.0487 0 33.3901-1.8359 48.677-5.4277 8.0688 17.3669 13.6565 38.2114 12.8416 62.1191-1.6895 49.5615-13.5002 96.0405-22.0973 123.8721h-68.012c-8.597-27.8315-20.4078-74.3105-22.0973-123.8721-.7102-20.8291 3.2475-40.9365 11.7964-60.0864zm-21.7647 112.5185c4.4449 28.6292 10.9636 53.7944 16.5193 72.167-13.5707 2.6172-22.8816 11.1008-28.8489 19.0122l-18.749-54.2207z" fill="url(#SVGID_00000145748940790052929610000018196686251918717339_)"/><path d="m286.2964 340.71c-1.4238-1.7627-3.5684-2.7871-5.834-2.7871h-61.4409c-2.2656 0-4.4102 1.0244-5.834 2.7871-1.4238 1.7617-1.9746 4.0742-1.4985 6.2891l6.5386 30.417c.7427 3.4561 3.7979 5.9238 7.3325 5.9238h48.3638c3.5347 0 6.5898-2.4678 7.3325-5.9238l6.5386-30.417c.476-2.2149-.0748-4.5274-1.4986-6.2891zm-18.4317 27.6298h-36.2456l-3.314-15.417h42.8735z" fill="url(#SVGID_00000090278057763729667090000006753575568381442184_)"/><path d="m165.3237 381.1973c-18.9213 0-36.135 10.9409-44.3293 27.689-1.4487-.113-2.9055-.186-4.3743-.186-27.4546 0-50.9121 20.4912-54.564 47.6641-.5518 4.1055 2.3291 7.8809 6.4341 8.4326.3389.0449.6758.0674 1.0083.0674 3.6982 0 6.918-2.7354 7.4238-6.502 2.6558-19.7607 19.7222-34.6621 39.6978-34.6621 10.6997 0 20.7588 4.167 28.3252 11.7334 2.9287 2.9277 7.6777 2.9277 10.6064 0 2.9292-2.9297 2.9292-7.6777 0-10.6074-5.5774-5.5769-12.1464-9.7954-19.3022-12.5222 6.1953-9.8452 17.1401-16.1067 29.0742-16.1067 18.9282 0 34.3271 15.3994 34.3271 34.3281 0 4.1426 3.3579 7.5 7.5 7.5s7.5-3.3574 7.5-7.5c.0001-27.1993-22.1279-49.3282-49.3271-49.3282z" fill="url(#SVGID_00000147215172337480998930000008936027859855204245_)"/><path d="m437.9438 456.3643c-3.6519-27.1729-27.1094-47.6641-54.564-47.6641-1.4688 0-2.9255.073-4.3743.186-8.1943-16.748-25.4081-27.689-44.3293-27.689-27.1992 0-49.3271 22.1289-49.3271 49.3281 0 4.1426 3.3579 7.5 7.5 7.5s7.5-3.3574 7.5-7.5c0-18.9287 15.3989-34.3281 34.3271-34.3281 11.9341 0 22.8789 6.2615 29.0742 16.1067-7.1559 2.7268-13.7249 6.9453-19.3022 12.5222-2.9292 2.9297-2.9292 7.6777 0 10.6074 2.9287 2.9277 7.6777 2.9277 10.6064 0 7.5664-7.5664 17.6255-11.7334 28.3252-11.7334 19.9756 0 37.042 14.9014 39.6978 34.6621.5063 3.7666 3.7251 6.502 7.4238 6.502.3325 0 .6694-.0225 1.0083-.0674 4.105-.5517 6.9859-4.3271 6.4341-8.4325z" fill="url(#SVGID_00000095305874505243680890000007791444966180417957_)"/><path d="m249.7422 392.4873c-4.1421 0-7.5 3.3574-7.5 7.5v32.8809c0 4.1426 3.3579 7.5 7.5 7.5s7.5-3.3574 7.5-7.5v-32.8809c0-4.1426-3.3579-7.5-7.5-7.5z" fill="url(#SVGID_00000181056028961282514410000004468046647748452744_)"/><path d="m271.7412 392.4873c-4.1421 0-7.5 3.3574-7.5 7.5v11.3135c0 4.1426 3.3579 7.5 7.5 7.5s7.5-3.3574 7.5-7.5v-11.3135c0-4.1426-3.3579-7.5-7.5-7.5z" fill="url(#SVGID_00000029013522688357268790000002238014515316236960_)"/><path d="m227.4419 392.4873c-4.1421 0-7.5 3.3574-7.5 7.5v11.3135c0 4.1426 3.3579 7.5 7.5 7.5s7.5-3.3574 7.5-7.5v-11.3135c0-4.1426-3.3579-7.5-7.5-7.5z" fill="url(#SVGID_00000011712547135207168500000011361228872892351370_)"/></g></svg>