<svg id="Bahan_copy_8" viewBox="0 0 64 64" xmlns="http://www.w3.org/2000/svg" xmlns:xlink="http://www.w3.org/1999/xlink" data-name="Bahan copy 8"><linearGradient id="linear-gradient" gradientUnits="userSpaceOnUse" x1="4" x2="60" y1="31.996" y2="31.996"><stop offset="0" stop-color="#ff81ff"/><stop offset="1" stop-color="#a93aff"/></linearGradient><path d="m55.37305 11.89746h-27.31641a4.40239 4.40239 0 0 0 -4.627 4.12451v2.76953h-14.42378a4.76 4.76 0 0 0 -5.00586 4.45508v18.24561a4.76 4.76 0 0 0 5.00586 4.45508l2.064.0122v4.61573a1.64135 1.64135 0 0 0 2.87552.95646l4.7739-5.58439h20.459a4.76 4.76 0 0 0 5.00586-4.45508v-4.85169l2.36572-.00427 4.27735 5.05908a1.6079 1.6079 0 0 0 1.77539.45068 1.46958 1.46958 0 0 0 .99219-1.37841l.00048-4.09815h1.77784a4.40277 4.40277 0 0 0 4.62689-4.125v-16.52243a4.40239 4.40239 0 0 0 -4.62695-4.12454zm-13.189 29.59473a2.77616 2.77616 0 0 1 -3.00586 2.45508h-20.459a2.06824 2.06824 0 0 0 -1.57471.70459l-4.07471 4.81787v-3.66114a1.93745 1.93745 0 0 0 -2.00146-1.86132h-2.06245a2.77616 2.77616 0 0 1 -3.00586-2.45508v-18.24561a2.77616 2.77616 0 0 1 3.00586-2.45508h14.42383v11.75293a4.40277 4.40277 0 0 0 4.627 4.125l14.12739-.02543zm15.81595-8.94776a2.41885 2.41885 0 0 1 -2.627 2.125h-1.871a1.84921 1.84921 0 0 0 -1.90674 1.78125l-.00048 3.05469-3.5166-4.15918a1.94645 1.94645 0 0 0 -1.49756-.67676h-18.52398a2.41885 2.41885 0 0 1 -2.627-2.125v-16.52243a2.41885 2.41885 0 0 1 2.627-2.12451h27.31641a2.41885 2.41885 0 0 1 2.62695 2.12451zm-25.97949-11.70312h15.12737a1.0002 1.0002 0 0 1 .00007 2h-15.12744a1.0002 1.0002 0 0 1 0-2zm20.02832 8.019h-20.02825a1.0002 1.0002 0 0 1 -.00007-2h20.02832a1.0002 1.0002 0 0 1 0 2.00004z" fill="url(#linear-gradient)"/></svg>