<svg id="Layer_2_00000112615454110965305510000016573703695836031908_" enable-background="new 0 0 512 512" height="512" viewBox="0 0 512 512" width="512" xmlns="http://www.w3.org/2000/svg" xmlns:xlink="http://www.w3.org/1999/xlink"><linearGradient id="_18_00000046332535727207317590000009186389040072940180_" gradientTransform="matrix(1 0 0 -1 0 514)" gradientUnits="userSpaceOnUse" x1="136.146" x2="375.854" y1="377.854" y2="138.146"><stop offset="0" stop-color="#2492ff"/><stop offset="1" stop-color="#0043ae"/></linearGradient><g id="Icon"><path id="_18" d="m361 142h-210c-27.6 0-50 22.4-50 50v128c0 27.6 22.4 50 50 50h210c27.6 0 50-22.4 50-50v-128c0-27.6-22.4-50-50-50zm25 178c0 13.8-11.2 25-25 25h-210c-13.8 0-25-11.2-25-25v-108c0-13.8 11.2-25 25-25h210c13.8 0 25 11.2 25 25zm-20-7.5c0 6.9-5.6 12.5-12.5 12.5h-83.6c-6.9 0-12.5-5.6-12.5-12.5 0-6.9 5.6-12.5 12.5-12.5h83.6c6.9 0 12.5 5.6 12.5 12.5zm-163.2-61.9c9.8 9.8 9.8 25.6 0 35.4l-30.3 30.3c-4.9 4.9-12.8 4.9-17.7 0-4.9-4.9-4.9-12.8 0-17.7l30.3-30.3-30.3-30.3c-4.9-4.9-4.9-12.8 0-17.7 4.9-4.9 12.8-4.9 17.7 0z" fill="url(#_18_00000046332535727207317590000009186389040072940180_)"/></g></svg>