<svg clip-rule="evenodd" fill-rule="evenodd" stroke-linejoin="round" stroke-miterlimit="2" viewBox="0 0 48 48" xmlns="http://www.w3.org/2000/svg" xmlns:xlink="http://www.w3.org/1999/xlink"><linearGradient id="_Linear1" gradientTransform="matrix(48 48 -48 48 144 216)" gradientUnits="userSpaceOnUse" x1="0" x2="1" y1="0" y2="0"><stop offset="0" stop-color="#79c5d4"/><stop offset="1" stop-color="#276dd7"/></linearGradient><g transform="translate(-144 -216)"><g id="GRADIENT-LINE"><path d="m146 249v-25c0-1.657 1.343-3 3-3h38c1.657 0 3 1.343 3 3v32c0 1.657-1.343 3-3 3h-38c-1.657 0-3-1.343-3-3v-1c0-.552.448-1 1-1s1 .448 1 1v1c0 .552.448 1 1 1h38c.552 0 1-.448 1-1v-27h-1c-.552 0-1-.448-1-1s.448-1 1-1h1v-3c0-.552-.448-1-1-1h-38c-.552 0-1 .448-1 1v3h36c.552 0 1 .448 1 1s-.448 1-1 1h-36v20c0 .552-.448 1-1 1s-1-.448-1-1zm11.366-14h-3.366l6.299 7.349c.321.375.321.927 0 1.302l-6.299 7.349h3.366l6.299-7.349c.321-.375.321-.927 0-1.302l-2.727-3.182c-.359-.419-.311-1.05.108-1.41.419-.359 1.051-.31 1.41.109l2.728 3.182c.963 1.123.963 2.781 0 3.904l-6.3 7.35c-.38.443-.934.698-1.518.698h-3.366c-.781 0-1.491-.455-1.817-1.164-.326-.71-.21-1.545.298-2.138l5.742-6.698-5.741-6.698c-.509-.593-.625-1.428-.299-2.138.326-.709 1.036-1.164 1.817-1.164h3.366c.584 0 1.138.255 1.518.698l1.375 1.604c.359.419.311 1.051-.108 1.41-.419.36-1.051.311-1.41-.108zm26.634 14v2c0 1.105-.895 2-2 2h-15c-1.105 0-2-.895-2-2v-2c0-1.105.895-2 2-2h15c1.105 0 2 .895 2 2zm-17 2h15v-2h-15zm-20 0c.552 0 1 .448 1 1s-.448 1-1 1-1-.448-1-1 .448-1 1-1z" fill="url(#_Linear1)"/></g></g></svg>