<?xml version="1.0" encoding="iso-8859-1"?>
<!-- Generator: Adobe Illustrator 19.0.0, SVG Export Plug-In . SVG Version: 6.00 Build 0)  -->
<svg version="1.1" id="Capa_1" xmlns="http://www.w3.org/2000/svg" xmlns:xlink="http://www.w3.org/1999/xlink" x="0px" y="0px"
	 viewBox="0 0 480 480" style="enable-background:new 0 0 480 480;" xml:space="preserve">
<linearGradient id="SVGID_1_" gradientUnits="userSpaceOnUse" x1="-26.875" y1="556.445" x2="-26.875" y2="634.785" gradientTransform="matrix(8 0 0 -8 455 4941)">
	<stop  offset="0" style="stop-color:#006DF0"/>
	<stop  offset="1" style="stop-color:#00E7F0"/>
</linearGradient>
<path style="fill:url(#SVGID_1_);" d="M472,216h-56v-48c0-4.418-3.582-8-8-8H248V96h56c4.418,0,8-3.582,8-8V8c0-4.418-3.582-8-8-8
	H176c-4.418,0-8,3.582-8,8v80c0,4.418,3.582,8,8,8h56v64H72c-4.418,0-8,3.582-8,8v48H8c-4.418,0-8,3.582-8,8v80c0,4.418,3.582,8,8,8
	h128c4.418,0,8-3.582,8-8v-80c0-4.418-3.582-8-8-8H80v-40h152v40h-56c-4.418,0-8,3.582-8,8v80c0,4.418,3.582,8,8,8h56v72h-56
	c-4.418,0-8,3.582-8,8v80c0,4.418,3.582,8,8,8h128c4.418,0,8-3.582,8-8v-80c0-4.418-3.582-8-8-8h-56v-72h56c4.418,0,8-3.582,8-8v-80
	c0-4.418-3.582-8-8-8h-56v-40h152v40h-56c-4.418,0-8,3.582-8,8v80c0,4.418,3.582,8,8,8h128c4.418,0,8-3.582,8-8v-80
	C480,219.582,476.418,216,472,216z M184,16h112v64H184V16z M128,296H16v-64h112V296z M296,464H184v-64h112V464z M296,232v64H184v-64
	H296z M464,296H352v-64h112V296z"/>
<g>
</g>
<g>
</g>
<g>
</g>
<g>
</g>
<g>
</g>
<g>
</g>
<g>
</g>
<g>
</g>
<g>
</g>
<g>
</g>
<g>
</g>
<g>
</g>
<g>
</g>
<g>
</g>
<g>
</g>
</svg>
