<svg id="Layer_1" enable-background="new 0 0 491.5 491.5" height="512" viewBox="0 0 491.5 491.5" width="512" xmlns="http://www.w3.org/2000/svg" xmlns:xlink="http://www.w3.org/1999/xlink"><linearGradient id="Layer_x0020_1_1_" gradientUnits="userSpaceOnUse" x1="245.8" x2="245.8" y1="35.9" y2="455.6"><stop offset="0" stop-color="#f704fe"/><stop offset="1" stop-color="#24bce3"/></linearGradient><path id="Layer_x0020_1" d="m68.6 353.1c6.5 12.5 14.5 19.4 22.7 19.4s16.3-6.9 22.7-19.4c5.6-14.4 3.7-26.1-5.3-32.9-9.6-7.3-25.3-7.3-34.9 0-8.9 6.8-10.7 18.5-5.2 32.9zm22.8 28.8c-12 0-23.1-8.8-31.3-24.7-.1-.1-.1-.3-.2-.4-7.3-18.5-4.3-34.6 8.3-44.1 13-9.8 33.4-9.8 46.4 0 12.5 9.5 15.6 25.6 8.3 44.1-.1.1-.1.3-.2.4-8.3 15.9-19.4 24.7-31.3 24.7zm-53.1 64.2h106.2v-26.1c0-14.4-11.8-26.2-26.2-26.2h-7.1c-12.7 6.6-27 6.6-39.6 0h-7.1c-14.4 0-26.2 11.7-26.2 26.2zm110.9 9.5h-115.7c-2.6 0-4.7-2.1-4.7-4.7v-30.9c0-19.7 16-35.7 35.7-35.7h8.3c.8 0 1.6.2 2.3.6 10.5 5.9 22.1 5.9 32.6 0 .7-.4 1.5-.6 2.3-.6h8.3c19.7 0 35.7 16 35.7 35.7v30.9c-.1 2.6-2.2 4.7-4.8 4.7zm-69.5-309.6c9.1 17.6 20.6 27.3 32.4 27.3 11.9 0 23.4-9.7 32.4-27.3 7.9-20.4 5.2-37-7.7-46.8-13.7-10.3-35.9-10.3-49.5 0-12.8 9.8-15.5 26.4-7.6 46.8zm32.5 36.8c-15.6 0-30.2-11.6-41-32.7-.1-.1-.1-.3-.2-.4-9.6-24.5-5.7-45.6 10.7-58 17.1-12.9 43.9-12.9 61 0 16.4 12.4 20.3 33.6 10.7 58-.1.1-.1.3-.2.4-10.9 21.1-25.4 32.7-41 32.7zm-44.1 100.2c-2.6 0-4.7-2.1-4.7-4.7v-44.5c0-2.6 2.1-4.7 4.7-4.7s4.7 2.1 4.7 4.7v44.5c.1 2.6-2 4.7-4.7 4.7zm88.1 0c-2.6 0-4.7-2.1-4.7-4.7v-44.5c0-2.6 2.1-4.7 4.7-4.7s4.7 2.1 4.7 4.7v44.5c0 2.6-2.1 4.7-4.7 4.7zm-117.9-9.5h113.2v-44.8c0-2.6 2.1-4.7 4.7-4.7h69.6c6.9 0 12.6-5.6 12.6-12.6 0-6.9-5.6-12.6-12.6-12.6h-87.1c-16.9 9-36.1 9-53 0h-10.1c-20.6 0-37.3 16.7-37.3 37.3zm117.9 9.5h-122.7c-2.6 0-4.7-2.1-4.7-4.7v-42c0-25.8 21-46.8 46.8-46.8h11.3c.8 0 1.6.2 2.3.6 14.8 8.3 31.1 8.3 46 0 .7-.4 1.5-.6 2.3-.6h88.3c12.1 0 22 9.9 22 22s-9.9 22-22 22h-64.9v44.8c0 2.6-2.1 4.7-4.7 4.7zm291.5 0h-253.6c-8.3 0-15-6.7-15-15v-39.3c0-2.6 2.1-4.7 4.7-4.7s4.7 2.1 4.7 4.7v39.3c0 3 2.5 5.5 5.5 5.5h253.7c3 0 5.5-2.5 5.5-5.5v-217.1c0-3-2.5-5.5-5.5-5.5h-253.7c-3 0-5.5 2.5-5.5 5.5v143.2c0 2.6-2.1 4.7-4.7 4.7s-4.7-2.1-4.7-4.7v-143.2c0-8.3 6.7-15 15-15h253.7c8.3 0 15 6.7 15 15v217.1c-.1 8.3-6.8 15-15.1 15zm-94.6-210.1h-64.3c-2.6 0-4.7-2.1-4.7-4.7s2.1-4.7 4.7-4.7h64.3c2.6 0 4.7 2.1 4.7 4.7 0 2.5-2.1 4.7-4.7 4.7zm29.4 21.9h-123.2c-2.6 0-4.7-2.1-4.7-4.7s2.1-4.7 4.7-4.7h123.3c2.6 0 4.7 2.1 4.7 4.7 0 2.5-2.1 4.7-4.8 4.7zm-26.7 103.6c2.3 19 18.6 33.7 38.2 33.7 21.2 0 38.5-17.3 38.5-38.5 0-19.6-14.8-35.9-33.8-38.2v38.2c0 2.6-2.1 4.7-4.7 4.7zm38.2 43.2c-26.4 0-48-21.5-48-48 0-2.6 2.1-4.7 4.7-4.7h38.5v-38.5c0-2.6 2.1-4.7 4.7-4.7 26.4 0 48 21.5 48 48 .1 26.4-21.5 47.9-47.9 47.9zm-57.1-71.7h33.5v-33.5c-17.5 2.2-31.4 16.1-33.5 33.5zm38.2 9.5h-43.2c-2.6 0-4.7-2.1-4.7-4.7 0-26.4 21.5-48 48-48 2.6 0 4.7 2.1 4.7 4.7v43.2c-.1 2.7-2.2 4.8-4.8 4.8zm-157.8-51.7h-12.7c-2.6 0-4.7-2.1-4.7-4.7s2.1-4.7 4.7-4.7h12.7c2.6 0 4.7 2.1 4.7 4.7.1 2.6-2.1 4.7-4.7 4.7zm94.8 0h-78.8c-2.6 0-4.7-2.1-4.7-4.7s2.1-4.7 4.7-4.7h78.8c2.6 0 4.7 2.1 4.7 4.7s-2.1 4.7-4.7 4.7zm-94.8 40.8h-12.7c-2.6 0-4.7-2.1-4.7-4.7s2.1-4.7 4.7-4.7h12.7c2.6 0 4.7 2.1 4.7 4.7.1 2.6-2.1 4.7-4.7 4.7zm94.8 0h-78.8c-2.6 0-4.7-2.1-4.7-4.7s2.1-4.7 4.7-4.7h78.8c2.6 0 4.7 2.1 4.7 4.7s-2.1 4.7-4.7 4.7zm0 40.8h-52.9c-2.6 0-4.7-2.1-4.7-4.7s2.1-4.7 4.7-4.7h52.9c2.6 0 4.7 2.1 4.7 4.7s-2.1 4.7-4.7 4.7zm-94.8 40.8h-12.7c-2.6 0-4.7-2.1-4.7-4.7s2.1-4.7 4.7-4.7h12.7c2.6 0 4.7 2.1 4.7 4.7.1 2.5-2.1 4.7-4.7 4.7zm94.8 0h-78.8c-2.6 0-4.7-2.1-4.7-4.7s2.1-4.7 4.7-4.7h78.8c2.6 0 4.7 2.1 4.7 4.7 0 2.5-2.1 4.7-4.7 4.7zm-89.1 103c6.5 12.5 14.5 19.4 22.7 19.4s16.3-6.9 22.7-19.4c5.6-14.4 3.7-26.1-5.3-32.9-9.6-7.3-25.3-7.3-34.9 0-8.9 6.8-10.7 18.5-5.2 32.9zm22.8 28.8c-12 0-23.1-8.8-31.3-24.7-.1-.1-.1-.3-.2-.4-7.3-18.5-4.3-34.6 8.3-44.1 13-9.8 33.3-9.8 46.3 0 12.5 9.5 15.6 25.6 8.3 44.1-.1.1-.1.3-.2.4-8.2 15.9-19.3 24.7-31.2 24.7zm-53.1 64.2h106.2v-26.1c0-14.4-11.8-26.2-26.2-26.2h-7.1c-12.7 6.6-27 6.6-39.6 0h-7.1c-14.4 0-26.2 11.7-26.2 26.2zm110.9 9.5h-115.7c-2.6 0-4.7-2.1-4.7-4.7v-30.9c0-19.7 16-35.7 35.7-35.7h8.3c.8 0 1.6.2 2.3.6 10.5 5.9 22.1 5.9 32.6 0 .7-.4 1.5-.6 2.3-.6h8.3c19.7 0 35.7 16 35.7 35.7v30.9c-.1 2.6-2.2 4.7-4.8 4.7zm73.9-102.5c6.4 12.5 14.5 19.4 22.7 19.4s16.3-6.9 22.7-19.4c5.6-14.4 3.7-26.1-5.3-32.9-9.6-7.3-25.3-7.3-34.9 0-9 6.8-10.8 18.5-5.2 32.9zm22.7 28.8c-12 0-23.1-8.8-31.3-24.7-.1-.1-.1-.3-.2-.4-7.3-18.5-4.3-34.6 8.3-44.1 13-9.8 33.3-9.8 46.3 0 12.5 9.5 15.6 25.6 8.3 44.1-.1.1-.1.3-.2.4-8.2 15.9-19.2 24.7-31.2 24.7zm-53.1 64.2h106.2v-26.1c0-14.4-11.8-26.2-26.2-26.2h-7.1c-12.7 6.6-27 6.6-39.6 0h-7.1c-14.4 0-26.2 11.7-26.2 26.2zm110.9 9.5h-115.7c-2.6 0-4.7-2.1-4.7-4.7v-30.9c0-19.7 16-35.7 35.7-35.7h8.3c.8 0 1.6.2 2.3.6 10.5 5.9 22.1 5.9 32.6 0 .7-.4 1.5-.6 2.3-.6h8.3c19.7 0 35.7 16 35.7 35.7v30.9c-.1 2.6-2.2 4.7-4.8 4.7z" fill="url(#Layer_x0020_1_1_)"/></svg>