<svg height="444pt" viewBox="0 -2 444.128 444" width="444pt" xmlns="http://www.w3.org/2000/svg" xmlns:xlink="http://www.w3.org/1999/xlink"><linearGradient id="a"><stop offset="0" stop-color="#6078ea"/><stop offset="1" stop-color="#17ead9"/></linearGradient><linearGradient id="b" gradientUnits="userSpaceOnUse" x1="377.8594" x2="203.8594" xlink:href="#a" y1="237.5542" y2="57.5542"/><linearGradient id="c" gradientUnits="userSpaceOnUse" x1="309.2002" x2="135.2002" xlink:href="#a" y1="303.9247" y2="123.9247"/><linearGradient id="d" gradientUnits="userSpaceOnUse" x1="293.1068" x2="119.1068" xlink:href="#a" y1="319.4816" y2="139.4816"/><linearGradient id="e" gradientUnits="userSpaceOnUse" x1="240.7366" x2="66.7367" xlink:href="#a" y1="370.1061" y2="190.1061"/><linearGradient id="f" gradientUnits="userSpaceOnUse" x1="323.5332" x2="149.5332" xlink:href="#a" y1="290.0694" y2="110.0694"/><linearGradient id="g" gradientUnits="userSpaceOnUse" x1="371.2346" x2="197.2346" xlink:href="#a" y1="243.9581" y2="63.9581"/><linearGradient id="h" gradientUnits="userSpaceOnUse" x1="223.0979" x2="49.0979" xlink:href="#a" y1="387.157" y2="207.157"/><linearGradient id="i" gradientUnits="userSpaceOnUse" x1="175.3965" x2="1.3965" xlink:href="#a" y1="433.2683" y2="253.2683"/><path d="m209.230469 36.652344c-14.589844 0-26.457031 11.867187-26.457031 26.457031 0 14.585937 11.867187 26.457031 26.457031 26.457031 14.585937 0 26.457031-11.871094 26.457031-26.457031 0-14.589844-11.871094-26.457031-26.457031-26.457031zm0 39.914062c-7.421875 0-13.457031-6.039062-13.457031-13.457031 0-7.421875 6.035156-13.457031 13.457031-13.457031 7.417969 0 13.457031 6.035156 13.457031 13.457031 0 7.417969-6.039062 13.457031-13.457031 13.457031zm0 0" fill="url(#b)"/><path d="m269.203125 327.535156c1.636719-1.367187 2.496094-3.449218 2.304687-5.574218-.191406-2.121094-1.414062-4.015626-3.265624-5.066407l-21.46875-12.175781v-12.625h18.257812c.152344 0 .304688-.015625.453125-.023438.152344.007813.304687.023438.457031.023438h59.78125c2.867188 10.558594 12.53125 18.347656 23.980469 18.347656 13.703125 0 24.851563-11.144531 24.851563-24.847656s-11.148438-24.851562-24.851563-24.851562c-11.449219 0-21.113281 7.792968-23.980469 18.351562h-54.191406v-26.761719c0-1.738281-.699219-3.40625-1.9375-4.628906l-22.820312-22.484375v-26.316406c39.316406-15.371094 65.414062-53.316406 65.414062-95.878906 0-56.773438-46.1875-102.960938-102.957031-102.960938s-102.960938 46.1875-102.960938 102.960938c0 42.5625 26.101563 80.507812 65.414063 95.878906v80.191406h-53.28125c-2.863282-10.558594-12.527344-18.351562-23.980469-18.351562-13.703125 0-24.847656 11.148437-24.847656 24.851562s11.144531 24.847656 24.847656 24.847656c11.453125 0 21.113281-7.789062 23.980469-18.347656h53.28125v112.496094c0 3.589844 2.910156 6.5 6.5 6.5h24.546875v22.695312c0 3.589844 2.910156 6.5 6.5 6.5h31.042969c3.589843 0 6.5-2.910156 6.5-6.5v-20.332031l22.597656-20.289063c1.375-1.234374 2.160156-2.992187 2.160156-4.839843v-22.902344c0-3.589844-2.910156-6.5-6.5-6.5h-18.257812v-12.640625zm80.5-53.792968c6.535156 0 11.851563 5.316406 11.851563 11.851562s-5.316407 11.847656-11.851563 11.847656c-6.53125 0-11.847656-5.3125-11.847656-11.847656s5.316406-11.851562 11.847656-11.851562zm-255.28125 23.699218c-6.535156 0-11.847656-5.3125-11.847656-11.847656s5.3125-11.851562 11.847656-11.851562 11.847656 5.316406 11.847656 11.851562-5.3125 11.847656-11.847656 11.847656zm145.851563 74.480469h18.257812v13.503906l-22.601562 20.292969c-.042969.039062-.082032.082031-.121094.121094-.082032.078125-.160156.152344-.234375.234375-.078125.078125-.148438.160156-.222657.242187-.0625.074219-.125.152344-.1875.230469-.070312.089844-.140624.179687-.207031.273437-.054687.078126-.105469.160157-.160156.238282-.0625.097656-.121094.195312-.179687.296875-.046876.085937-.09375.171875-.136719.257812-.046875.097657-.097657.195313-.140625.296875-.042969.097656-.082032.195313-.121094.292969-.039062.09375-.074219.191406-.105469.285156-.035156.105469-.066406.214844-.097656.324219-.027344.09375-.050781.1875-.074219.28125-.023437.109375-.046875.222656-.066406.332031-.015625.101563-.03125.203125-.046875.304688-.011719.105469-.023437.210937-.03125.316406-.007813.113281-.011719.226563-.015625.335937 0 .058594-.007812.113282-.007812.171876v16.726562h-18.046876v-22.691406c0-3.589844-2.910156-6.5-6.5-6.5h-24.542968v-203.722656c0-.050782-.007813-.105469-.007813-.15625-.003906-.144532-.007812-.285157-.023437-.429688-.007813-.085938-.019532-.171875-.03125-.257812-.015625-.121094-.03125-.242188-.054688-.359376-.019531-.105468-.042968-.210937-.070312-.3125-.023438-.097656-.046875-.191406-.074219-.289062-.03125-.113281-.070313-.226562-.109375-.339844-.03125-.082031-.058594-.164062-.089844-.246094-.046875-.113281-.097656-.226562-.148437-.339843-.039063-.078125-.074219-.15625-.113281-.230469-.054688-.105469-.113282-.210938-.171876-.3125-.046874-.082031-.09375-.160156-.144531-.242188-.058593-.089843-.121093-.175781-.183593-.265624-.0625-.085938-.125-.171876-.191407-.253907-.058593-.074219-.121093-.144531-.183593-.21875-.074219-.089843-.15625-.175781-.238282-.261719-.058594-.0625-.121094-.121093-.183594-.179687-.089843-.085937-.179687-.167969-.273437-.25-.066406-.058594-.136719-.113281-.203125-.164063-.09375-.074218-.191406-.148437-.289062-.214843-.082032-.058594-.164063-.113281-.25-.164063-.089844-.058594-.179688-.113281-.269532-.164062-.109375-.0625-.21875-.117188-.328125-.171875-.074219-.035157-.152343-.074219-.230469-.109375-.132812-.0625-.265624-.113282-.40625-.160156-.046874-.019532-.09375-.042969-.140624-.058594-36.488282-12.390625-61.003907-46.625-61.003907-85.191406 0-49.601563 40.351563-89.957032 89.957031-89.957032 49.601563 0 89.957032 40.355469 89.957032 89.957032 0 38.566406-24.515625 72.800781-61.003906 85.191406-.050782.015625-.09375.039062-.144532.058594-.136718.046874-.269531.097656-.402344.160156-.078124.035156-.15625.074218-.234374.109375-.109376.054687-.21875.109375-.324219.171875-.09375.050781-.179688.105468-.269531.164062-.085938.050782-.171876.105469-.253907.164063-.097656.066406-.191406.140625-.285156.214843-.070313.050782-.136719.105469-.203125.164063-.09375.078125-.183594.160156-.273438.246094-.0625.058593-.125.121093-.1875.183593-.082031.085938-.160156.171876-.234374.261719-.0625.070313-.125.144531-.183594.21875-.066406.082031-.128906.167969-.191406.253907-.0625.089843-.125.175781-.183594.265624-.050782.082032-.097656.160157-.144532.242188-.058593.101562-.117187.207031-.171874.3125-.039063.074219-.078126.152344-.113282.230469-.050781.109375-.101562.226562-.148437.339843-.03125.082032-.058594.160157-.085938.242188-.042969.113281-.082031.230469-.113281.347656-.027344.09375-.050781.1875-.074219.285156-.023437.101563-.050781.207032-.070312.3125-.023438.117188-.039063.238282-.054688.359376-.011719.085937-.023437.171874-.03125.257812-.015625.144531-.019531.285156-.023437.429688 0 .054687-.007813.105468-.007813.15625v33.574218.023438c.003907.15625.011719.3125.023438.464844.011719.152343.03125.300781.050781.453124.019531.113282.03125.230469.054688.347657.027343.132812.0625.261719.097656.386719.019531.078124.035156.15625.058594.230468.039062.121094.085937.242188.128906.359375.03125.078125.054687.160157.089844.238281.042968.109376.097656.214844.152343.320313.039063.085937.078125.171875.121094.257813.058594.109374.125.210937.191406.316406.046875.074218.085938.152344.136719.226562.121094.175782.246094.347656.382812.511719.011719.011719.019532.023437.03125.035156.128907.152344.265626.300781.410157.445313.003906.003906.007812.007812.011719.011718l22.816406 22.480469v24.042969h-18.253906c-3.589844 0-6.5 2.910156-6.5 6.5v22.78125.003906.117188c0 .0625.007812.117187.007812.175781.003906.140625.007812.28125.023438.421875.007812.09375.019531.183594.035156.273438.015625.117187.027344.230468.050781.347656.019531.101562.046875.207031.070313.308594.023437.101562.046874.203124.078124.300781.027344.105469.0625.203125.097657.304687.035156.101563.070312.199219.109375.296875.035156.089844.078125.179688.117187.265625.046875.109375.101563.21875.15625.324219.035157.070313.074219.136719.113281.203125.066407.121094.140626.238281.214844.355469.035156.046875.066406.097656.101563.144531.089843.128906.179687.253906.28125.375.027343.035156.054687.066406.082031.101562.109375.128907.222656.25.339844.371094.027344.027344.054687.054688.082031.082032.121094.117187.246094.230468.375.339843.035156.03125.074219.054688.109375.082031.125.101563.253906.203126.390625.292969.046875.035157.097656.0625.148437.097657.101563.0625.199219.132812.308594.195312l16.601563 9.414062-17.5625 14.683594c-.121094.101563-.230469.207032-.339844.316406-.03125.027344-.066406.058594-.097656.085938-.117188.117188-.226563.242188-.332031.367188-.03125.035156-.0625.066406-.09375.105468-.097657.121094-.191407.25-.28125.378906-.03125.042969-.066407.085938-.097657.132813-.082031.121094-.152343.246094-.226562.375-.035157.058594-.070313.113281-.101563.175781-.058594.113282-.113281.230469-.167968.347656-.035157.078126-.074219.15625-.105469.234376-.042969.105468-.078125.214843-.117188.320312-.03125.09375-.066406.1875-.097656.285156-.027344.101563-.050781.203125-.078125.304688-.023438.105468-.054688.207031-.074219.3125-.019531.109375-.03125.21875-.046875.328125-.015625.101562-.035156.199219-.042968.300781-.015626.136719-.015626.273438-.023438.410156 0 .070313-.007812.140625-.007812.210938v22.175781c0 3.589844 2.910156 6.5 6.5 6.5zm0 0" fill="url(#c)"/><path d="m204.792969 192.980469c-3.589844 0-6.5 2.910156-6.5 6.5v57.285156c0 3.589844 2.910156 6.5 6.5 6.5 3.589843 0 6.5-2.910156 6.5-6.5v-57.285156c0-3.589844-2.910157-6.5-6.5-6.5zm0 0" fill="url(#d)"/><path d="m204.792969 276.378906c-3.589844 0-6.5 2.90625-6.5 6.5v100.09375c0 3.589844 2.910156 6.5 6.5 6.5 3.589843 0 6.5-2.910156 6.5-6.5v-100.09375c0-3.59375-2.910157-6.5-6.5-6.5zm0 0" fill="url(#e)"/><path d="m419.277344 318.1875c-11.453125 0-21.117188 7.789062-23.980469 18.347656h-47.339844l-17.523437-17.519531c-.152344-.152344-.3125-.296875-.476563-.433594-.066406-.054687-.140625-.101562-.210937-.15625-.097656-.074219-.195313-.152343-.300782-.222656-.085937-.054687-.171874-.105469-.257812-.15625-.09375-.058594-.191406-.117187-.289062-.171875-.085938-.046875-.175782-.085938-.265626-.128906-.105468-.046875-.207031-.097656-.3125-.144532-.085937-.035156-.171874-.0625-.257812-.09375-.113281-.039062-.226562-.082031-.34375-.117187-.082031-.027344-.167969-.046875-.253906-.066406-.121094-.03125-.238282-.066407-.359375-.089844-.097657-.019531-.195313-.03125-.292969-.042969-.113281-.019531-.222656-.039062-.335938-.050781-.179687-.015625-.359374-.023437-.539062-.027344-.035156 0-.066406-.003906-.097656-.003906h-39.933594c-3.589844 0-6.5 2.910156-6.5 6.5s2.910156 6.5 6.5 6.5h37.238281l17.523438 17.523437c.152343.152344.3125.296876.476562.429688.074219.0625.152344.113281.226563.171875.09375.070313.1875.144531.285156.207031.09375.0625.1875.117188.28125.171875.089844.050781.171875.109375.265625.15625.097656.050781.195313.097657.292969.140625.09375.046875.1875.09375.28125.132813.097656.039062.195312.070312.292968.105469.101563.039062.203126.078124.308594.109374.097656.03125.195313.050782.296875.078126.105469.023437.210938.054687.320313.074218.113281.023438.230468.039063.34375.054688.09375.015625.1875.03125.285156.042968.214844.019532.425781.03125.640625.03125h50.03125c2.863281 10.558594 12.527344 18.347657 23.980469 18.347657 13.703125 0 24.851562-11.148438 24.851562-24.847657-.003906-13.703124-11.148437-24.851562-24.851562-24.851562zm0 36.699219c-6.535156 0-11.847656-5.316407-11.847656-11.851563 0-6.53125 5.3125-11.847656 11.847656-11.847656s11.851562 5.3125 11.851562 11.847656c-.003906 6.535156-5.316406 11.851563-11.851562 11.851563zm0 0" fill="url(#f)"/><path d="m279.40625 247.578125c0 3.589844 2.910156 6.5 6.5 6.5h39.933594c.214844 0 .425781-.011719.640625-.03125.097656-.011719.195312-.027344.289062-.042969.113281-.015625.226563-.027344.339844-.050781.109375-.023437.21875-.054687.328125-.082031.097656-.023438.191406-.042969.285156-.074219.109375-.03125.214844-.070313.320313-.109375.09375-.035156.1875-.066406.28125-.105469.101562-.039062.195312-.089843.292969-.132812.09375-.046875.191406-.089844.285156-.140625.09375-.046875.179687-.105469.269531-.160156.09375-.054688.1875-.105469.273437-.164063.101563-.066406.195313-.140625.289063-.214844.074219-.054687.152344-.105469.226563-.164062.164062-.136719.324218-.28125.476562-.433594l17.523438-17.523437h47.335937c2.867187 10.5625 12.527344 18.351562 23.980469 18.351562 13.703125 0 24.851562-11.148438 24.851562-24.851562 0-13.699219-11.148437-24.847657-24.851562-24.847657-11.453125 0-21.113282 7.789063-23.980469 18.347657h-50.03125c-.03125 0-.058594.003906-.089844.007812-.183593 0-.367187.007812-.546875.027344-.109375.007812-.210937.03125-.316406.046875-.105469.011719-.210938.027343-.3125.046875-.117188.023437-.230469.054687-.34375.082031-.089844.023437-.183594.042969-.273438.070313-.113281.035156-.21875.078124-.328124.117187-.089844.03125-.183594.0625-.273438.097656-.101562.042969-.195312.089844-.292969.136719-.09375.046875-.191406.085938-.285156.136719-.089844.050781-.179687.105469-.269531.160156-.09375.054687-.1875.105469-.273438.167969-.101562.066406-.195312.140625-.289062.210937-.074219.058594-.152344.109375-.222656.167969-.167969.136719-.328126.277344-.476563.429688l-17.523437 17.523437h-37.242188c-3.589844 0-6.5 2.910156-6.5 6.5zm139.871094-31.277344c6.535156 0 11.851562 5.316407 11.851562 11.851563 0 6.53125-5.316406 11.847656-11.851562 11.847656s-11.847656-5.3125-11.847656-11.847656 5.3125-11.851563 11.847656-11.851563zm0 0" fill="url(#g)"/><path d="m24.847656 253c11.453125 0 21.117188-7.789062 23.980469-18.351562h47.339844l17.519531 17.519531c.152344.15625.316406.300781.484375.4375.066406.054687.136719.105469.207031.15625.097656.074219.195313.152343.300782.222656.089843.058594.179687.109375.269531.164063.09375.054687.183593.113281.277343.164062.09375.046875.1875.089844.285157.136719.097656.042969.191406.09375.289062.132812.09375.039063.191407.070313.285157.105469.105468.039062.207031.078125.316406.109375.09375.027344.191406.050781.289062.074219.109375.027344.214844.058594.328125.082031.113281.019531.226563.035156.339844.050781.09375.015625.191406.03125.289063.042969.210937.019531.425781.03125.640624.03125h39.929688c3.589844 0 6.5-2.910156 6.5-6.5s-2.910156-6.5-6.5-6.5h-37.238281l-17.519531-17.519531c-.152344-.152344-.3125-.300782-.484376-.4375-.0625-.054688-.128906-.097656-.195312-.148438-.105469-.078125-.207031-.15625-.3125-.230468-.085938-.054688-.175781-.105469-.265625-.15625-.09375-.058594-.183594-.117188-.28125-.167969-.089844-.050781-.183594-.089844-.277344-.136719-.097656-.046875-.199219-.09375-.300781-.136719-.089844-.039062-.179688-.066406-.273438-.101562-.105468-.039063-.214843-.078125-.324218-.113281-.09375-.027344-.183594-.046876-.277344-.070313-.113281-.03125-.226562-.058594-.339844-.082031-.105468-.023438-.210937-.035156-.316406-.050782-.105469-.011718-.207031-.035156-.3125-.042968-.183594-.019532-.367188-.027344-.554688-.027344-.027343 0-.054687-.003906-.085937-.003906h-50.03125c-2.863281-10.558594-12.527344-18.351563-23.980469-18.351563-13.699218 0-24.847656 11.148438-24.847656 24.851563 0 13.699218 11.148438 24.847656 24.847656 24.847656zm0-36.699219c6.535156 0 11.851563 5.316407 11.851563 11.851563 0 6.53125-5.316407 11.847656-11.851563 11.847656-6.53125 0-11.847656-5.3125-11.847656-11.847656s5.316406-11.851563 11.847656-11.851563zm0 0" fill="url(#h)"/><path d="m158.21875 317.109375h-39.929688c-.03125 0-.058593.003906-.089843.003906-.183594 0-.367188.007813-.550781.027344-.105469.011719-.207032.03125-.3125.046875-.105469.015625-.210938.027344-.316407.046875-.113281.023437-.226562.054687-.339843.082031-.089844.023438-.183594.042969-.277344.070313-.109375.035156-.214844.074219-.324219.113281-.089844.035156-.183594.066406-.277344.101562-.101562.042969-.195312.089844-.292969.136719-.09375.046875-.191406.085938-.28125.136719-.097656.050781-.1875.109375-.28125.164062-.085937.054688-.179687.105469-.265624.160157-.105469.070312-.203126.148437-.304688.226562-.066406.050781-.140625.097657-.207031.152344-.167969.140625-.328125.285156-.480469.4375l-17.519531 17.519531h-47.339844c-2.863281-10.558594-12.527344-18.351562-23.980469-18.351562-13.699218 0-24.847656 11.148437-24.847656 24.851562 0 13.699219 11.148438 24.847656 24.847656 24.847656 11.453125 0 21.117188-7.789062 23.980469-18.347656h50.03125c.214844 0 .429687-.011718.644531-.03125.09375-.011718.191406-.027344.285156-.042968.113282-.015626.230469-.03125.34375-.050782.109376-.023437.214844-.054687.324219-.082031.097657-.023437.195313-.046875.289063-.074219.109375-.03125.210937-.070312.316406-.109375.09375-.035156.191406-.066406.285156-.105469.097656-.039062.191406-.089843.289063-.132812.097656-.046875.191406-.089844.289062-.136719.09375-.050781.179688-.109375.273438-.164062.089843-.054688.183593-.105469.269531-.164063.105469-.070312.203125-.148437.304688-.222656.066406-.054688.136718-.101562.207031-.15625.167969-.136719.328125-.285156.480469-.4375l17.519531-17.519531h37.238281c3.589844 0 6.5-2.910157 6.5-6.5 0-3.589844-2.910156-6.496094-6.5-6.496094zm-133.371094 37.777344c-6.53125 0-11.847656-5.316407-11.847656-11.851563 0-6.53125 5.316406-11.847656 11.847656-11.847656 6.535156 0 11.851563 5.3125 11.851563 11.847656s-5.316407 11.851563-11.851563 11.851563zm0 0" fill="url(#i)"/></svg>