<svg id="Layer_2" height="512" viewBox="0 0 60 60" width="512" xmlns="http://www.w3.org/2000/svg" xmlns:xlink="http://www.w3.org/1999/xlink" data-name="Layer 2"><linearGradient id="linear-gradient" gradientUnits="userSpaceOnUse" x1="7.634" x2="52.366" y1="30" y2="30"><stop offset="0" stop-color="#17a6d7"/><stop offset="1" stop-color="#9d31fe"/></linearGradient><path d="m48.08108 7.86726h-1.18758v-1.08276a4.28449 4.28449 0 0 0 -4.2845-4.2845h-30.69008a4.28449 4.28449 0 0 0 -4.28449 4.2845v40.97058a4.28449 4.28449 0 0 0 4.28449 4.2845h1.49023v1.17592a4.28449 4.28449 0 0 0 4.2845 4.2845h30.38743a4.28449 4.28449 0 0 0 4.28449-4.2845v-3.83041a1.16427 1.16427 0 0 0 -1.16426-1.16427 1.16427 1.16427 0 0 0 -1.16431 1.16427v3.83041a1.96022 1.96022 0 0 1 -1.956 1.956h-30.38735a1.956 1.956 0 0 1 -1.956-1.956v-41.06375a1.956 1.956 0 0 1 1.956-1.956h30.38743a1.96022 1.96022 0 0 1 1.956 1.956v25.59066a1.16427 1.16427 0 0 0 1.16427 1.16427 1.16427 1.16427 0 0 0 1.16426-1.16427v-25.59066a4.28449 4.28449 0 0 0 -4.28453-4.28449zm-3.51611 0h-26.87132a4.28813 4.28813 0 0 0 -4.2845 4.28449v37.5593h-1.49023a1.95276 1.95276 0 0 1 -1.956-1.956v-40.97055a1.95275 1.95275 0 0 1 1.956-1.956h30.69008a1.95275 1.95275 0 0 1 1.956 1.956zm-19.40911 29.61435a4.06925 4.06925 0 1 1 4.06925-4.06925 4.07454 4.07454 0 0 1 -4.06925 4.06925zm0-5.81a1.74072 1.74072 0 1 0 1.74072 1.74071 1.743 1.743 0 0 0 -1.74072-1.74067zm4.06925-7.57343h-8.1385v-8.13847h8.1385zm-5.81-2.32854h3.48144v-3.48139h-3.48141zm5.81 28.7838h-8.1385v-8.13844h8.1385zm-5.81-2.32854h3.48144v-3.48139h-3.48141zm20.59989-27.03167h-11.15837a1.16426 1.16426 0 0 1 -1.16427-1.16423 1.16427 1.16427 0 0 1 1.16427-1.16427h11.15837a1.16427 1.16427 0 0 1 1.16422 1.16427 1.16426 1.16426 0 0 1 -1.16422 1.16423zm0 13.3834h-11.15837a1.16427 1.16427 0 0 1 -1.16427-1.16427 1.16427 1.16427 0 0 1 1.16427-1.16427h11.15837a1.16427 1.16427 0 0 1 1.16427 1.16427 1.16427 1.16427 0 0 1 -1.16427 1.16427zm0 13.07186h-11.15837a1.16427 1.16427 0 0 1 -1.16427-1.16426 1.16427 1.16427 0 0 1 1.16427-1.16423h11.15837a1.16427 1.16427 0 0 1 1.16427 1.16426 1.16427 1.16427 0 0 1 -1.16427 1.16423zm7.18631-2.92049a1.16427 1.16427 0 0 0 1.16426-1.16427 1.16427 1.16427 0 0 0 -1.16426-1.16427 1.16427 1.16427 0 0 0 -1.16431 1.16429 1.16427 1.16427 0 0 0 1.16431 1.16425z" fill="url(#linear-gradient)"/></svg>