<svg id="Gradient" height="512" viewBox="0 0 64 64" width="512" xmlns="http://www.w3.org/2000/svg" xmlns:xlink="http://www.w3.org/1999/xlink"><linearGradient id="linear-gradient" gradientUnits="userSpaceOnUse" x1="4" x2="60" y1="32" y2="32"><stop offset="0" stop-color="#7f00ff"/><stop offset="1" stop-color="#e100ff"/></linearGradient><path d="m47 23c-6.46 0-13 1.71729-13 5v24c.05 6.64587 25.9502 6.64691 26-.00006v-23.99994c0-3.28271-6.54-5-13-5zm11 29c0 1.01807-3.88281 3-11 3s-11-1.98193-11-3v-5.217c2.42645 1.46029 6.72467 2.217 11 2.217a31.7574 31.7574 0 0 0 7.23193-.77734.99993.99993 0 0 0 -.46386-1.94532 29.766 29.766 0 0 1 -6.76807.72266c-7.11719 0-11-1.98193-11-3v-5.217c4.868 2.94812 17.132 2.948 22-.00006zm0-16c0 1.01807-3.88281 3-11 3s-11-1.98193-11-3v-5.217c4.868 2.94812 17.132 2.948 22-.00006zm-11-5c-7.11719 0-11-1.98193-11-3s3.88281-3 11-3 11 1.98193 11 3-3.88281 3-11 3zm-30 26c6.46 0 13-1.71729 13-5v-24c-.05-6.64594-25.9502-6.647-26 0v24c0 3.28271 6.54 5 13 5zm0-32c7.11719 0 11 1.98193 11 3s-3.88281 3-11 3-11-1.98193-11-3 3.88281-3 11-3zm-11 5.783c4.868 2.94812 17.132 2.948 22-.00006v5.21706c-.65411 2.73627-12.45978 3.81879-17.76807 2.2771a1 1 0 0 0 -.46386 1.94556 31.7574 31.7574 0 0 0 7.23193.77734c4.27533 0 8.57355-.75671 11-2.217v5.217c0 1.01807-3.88281 3-11 3s-11-1.98193-11-3zm0 16c4.868 2.94812 17.132 2.948 22-.00006v5.21706c0 1.01807-3.88281 3-11 3s-11-1.98193-11-3zm6.293-31.076a1.00008 1.00008 0 0 1 1.414-1.414l2.293 2.29294v-6.58594a3.00328 3.00328 0 0 1 3-3h26a3.00328 3.00328 0 0 1 3 3v9a1 1 0 0 1 -2 0v-9a1.0013 1.0013 0 0 0 -1-1h-26a1.0013 1.0013 0 0 0 -1 1v6.58594l2.29291-2.293a1.0001 1.0001 0 0 1 1.41409 1.41406l-3.99969 3.99964a1.00806 1.00806 0 0 1 -1.41468.00006z" fill="url(#linear-gradient)"/></svg>