<svg height="496pt" viewBox="0 -55 496 495" width="496pt" xmlns="http://www.w3.org/2000/svg" xmlns:xlink="http://www.w3.org/1999/xlink"><linearGradient id="a" gradientUnits="userSpaceOnUse" x1="248" x2="248" y1="385.0616" y2=".4984"><stop offset="0" stop-color="#9f2fff"/><stop offset="1" stop-color="#0bb1d3"/></linearGradient><path d="m0 66.636719v252.296875l245.9375 65.574218 2.0625.550782 248-66.132813v-252.289062l-248-66.136719zm286.945312-39.191407-208.945312 55.71875-38.953125-10.382812 208.953125-55.722656zm-38.945312 101.054688-42.945312-11.457031 208.953124-55.71875 42.945313 11.457031zm-160-26.105469 72 19.203125v36.710938l-72-19.640625zm86 6.371094-64.953125-17.320313 208.953125-55.722656 64.953125 17.320313zm-158-25.570313 56 14.9375v52.757813l104 28.363281v-53.394531l64 17.066406v223.4375l-64-17.0625v-58.625l-104-28.375v59.261719l-56-14.933594zm144 261.832032-72-19.199219v-42.566406l72 19.628906zm96 21.335937v-223.4375l224-59.738281v223.441406zm192-85.582031h16v16h-16zm-32 8h16v16h-16zm-32 8h16v16h-16zm0 0" fill="url(#a)"/></svg>