<svg id="Line" enable-background="new 0 0 496 496" height="512" viewBox="0 0 496 496" width="512" xmlns="http://www.w3.org/2000/svg" xmlns:xlink="http://www.w3.org/1999/xlink"><linearGradient id="SVGID_1_" gradientUnits="userSpaceOnUse" x1="248" x2="248" y1="496" y2="0"><stop offset="0" stop-color="#9f2fff"/><stop offset="1" stop-color="#0bb1d3"/></linearGradient><path d="m320 168c0-13.234-10.766-24-24-24s-24 10.766-24 24 10.766 24 24 24 24-10.766 24-24zm-32 0c0-4.411 3.589-8 8-8s8 3.589 8 8-3.589 8-8 8-8-3.589-8-8zm192-152h-16c-8.822 0-16 7.178-16 16v.928c-2.128-.608-4.353-.928-6.627-.928h-88.804c-28.298 0-54.902 11.02-74.912 31.03-3.648 3.647-5.657 8.497-5.657 13.657 0 10.649 8.664 19.313 19.313 19.313 5.159 0 10.009-2.009 13.657-5.657 6.671-6.67 15.539-10.343 24.971-10.343 20.986 0 38.059 17.073 38.059 38.059v59.318c-9.311 3.302-16 12.195-16 22.624v72h-32v-53.401c19.354-9.185 32-28.852 32-50.599 0-30.878-25.122-56-56-56s-56 25.122-56 56c0 21.748 12.646 41.415 32 50.599v53.4h-32.065c-.486-9.699-4.68-18.599-11.576-25.045l5.985-5.985c3.648-3.647 5.657-8.498 5.657-13.657 0-9.518-6.927-17.43-16-19.008v-132.992c0-6.965-2.002-13.622-5.736-19.313 3.733-5.692 5.735-12.349 5.735-19.313v-20.687c0-8.822-7.178-16-16-16h-16c-8.822 0-16 7.178-16 16v20.687c0 6.965 2.002 13.622 5.736 19.313-3.734 5.692-5.736 12.349-5.736 19.313v132.992c-9.073 1.578-16 9.491-16 19.008 0 5.16 2.009 10.01 5.657 13.657l5.984 5.985c-6.896 6.446-11.09 15.346-11.576 25.045h-48.065v-64.57c27.103-3.894 48-27.268 48-55.43v-16c0-30.878-25.122-56-56-56h-8v48h-32v-48h-8c-30.878 0-56 25.122-56 56v16c0 28.163 20.897 51.537 48 55.43v64.57h-24c-13.234 0-24 10.767-24 24v160c0 22.056 17.944 40 40 40h416c22.056 0 40-17.944 40-40v-160c0-13.233-10.766-24-24-24h-40v-72c0-10.429-6.689-19.322-16-22.624v-44.69c0-11.406 9.28-20.686 20.686-20.686h4.687c2.275 0 4.499-.32 6.627-.928v.928c0 8.822 7.178 16 16 16h16c8.822 0 16-7.178 16-16v-80c0-8.822-7.178-16-16-16zm-96 128h16v32h-16zm-8 48h32c4.411 0 8 3.589 8 8v120h-48v-120c0-4.411 3.589-8 8-8zm-56 184v16c0 13.233-10.767 24-24 24h-96c-13.233 0-24-10.767-24-24v-16c0-1.17.259-2.279.712-3.281 2.018 6.526 8.108 11.281 15.288 11.281h112c7.18 0 13.27-4.755 15.288-11.281.453 1.002.712 2.111.712 3.281zm-144-40v16h-160v-16zm10.062-80h27.876c6.245 3.785 10.062 10.487 10.062 17.889v46.111h-48v-46.111c0-7.402 3.817-14.104 10.062-17.889zm5.938 80h80 32v32h-112zm128 16v-16h160v16zm32-64v32h-32v-32zm-96-120c0-22.056 17.944-40 40-40s40 17.944 40 40c0 16.919-10.716 32.076-26.667 37.715l-5.333 1.886v112.399h-16v-112.399l-5.333-1.886c-15.951-5.639-26.667-20.796-26.667-37.715zm16 152h-32v-32h32zm-80-304h16v20.687c0 4.125-1.303 8.04-3.683 11.313h-8.635c-2.379-3.273-3.682-7.189-3.682-11.313zm3.683 48h8.635c2.379 3.273 3.683 7.189 3.683 11.313v132.687h-16v-132.687c-.001-4.124 1.302-8.04 3.682-11.313zm-16.37 160h41.373c1.827 0 3.313 1.486 3.313 3.313 0 .885-.345 1.717-.97 2.343l-10.343 10.344h-25.372l-10.344-10.344c-.625-.625-.97-1.457-.97-2.342 0-1.828 1.486-3.314 3.313-3.314zm-19.313 64v32h-48v-32zm-144-136v-16c0-19.316 13.765-35.479 32-39.196v47.196h64v-47.196c18.235 3.717 32 19.88 32 39.196v16c0 22.056-17.944 40-40 40h-8v128h-32v-128h-8c-22.056 0-40-17.944-40-40zm8 136h24v32h-32v-24c0-4.411 3.589-8 8-8zm432 192h-416c-13.234 0-24-10.767-24-24v-88h145.376c-.888 2.504-1.376 5.195-1.376 8v16c0 22.056 17.944 40 40 40h96c22.056 0 40-17.944 40-40v-16c0-2.805-.488-5.496-1.376-8h145.376v88c0 13.233-10.766 24-24 24zm16-192c4.411 0 8 3.589 8 8v24h-48v-32zm-24.97-194.343c-1.511 1.511-3.521 2.343-5.657 2.343h-4.687c-18.64 0-34.067 13.978-36.376 32h-16.31v-9.941c0-29.809-24.251-54.059-54.059-54.059-13.706 0-26.592 5.337-36.284 15.03-.626.625-1.458.97-2.343.97-1.827 0-3.313-1.486-3.313-3.313 0-.885.345-1.718.971-2.344 16.986-16.988 39.572-26.343 63.596-26.343h88.804c2.137 0 4.146.832 5.657 2.343l.97.97v41.373zm32.97 18.343h-16v-80h16z" fill="url(#SVGID_1_)"/></svg>